<svg version="1.1" id="Layer_1" xmlns="http://www.w3.org/2000/svg" xmlns:xlink="http://www.w3.org/1999/xlink" x="0px" y="0px"
	 width="100%" viewBox="0 0 512 512" enable-background="new 0 0 512 512" xml:space="preserve">
<path fill="#000000" opacity="1.000000" stroke="none" 
	d="
M513.000000,189.000000 
	C513.000000,297.307007 513.000000,405.114014 513.000000,512.960510 
	C342.401306,512.960510 171.802628,512.960510 1.101965,512.960510 
	C1.101965,342.443024 1.101965,171.885956 1.101965,1.164450 
	C171.666534,1.164450 342.333252,1.164450 513.000000,1.164450 
	C513.000000,63.530674 513.000000,126.015335 513.000000,189.000000 
M399.676697,462.811035 
	C405.464569,458.247223 411.252411,453.683380 417.741516,449.015350 
	C427.845642,439.055420 437.949738,429.095490 448.677582,418.822021 
	C449.171112,417.993256 449.553955,417.068909 450.174652,416.349915 
	C460.385406,404.522095 468.940948,391.570496 476.906494,377.310425 
	C480.912811,368.984894 485.353149,360.834351 488.800781,352.283569 
	C492.105042,344.088379 494.379028,335.477753 497.756561,326.646332 
	C499.363495,320.050812 501.415985,313.526031 502.477448,306.843872 
	C504.261108,295.614868 505.414581,284.285736 506.970795,272.070435 
	C506.647125,257.348572 506.447998,242.622147 505.911774,227.908005 
	C505.778503,224.251495 504.554810,220.634720 503.970490,216.153061 
	C502.979218,210.726166 502.423157,205.174057 500.905273,199.898682 
	C497.822937,189.186279 494.220551,178.623505 490.954254,167.245224 
	C484.069366,149.245621 475.424042,132.048767 464.483246,116.270248 
	C450.895233,96.674049 435.146851,78.946922 416.495331,63.717464 
	C398.526489,49.045441 378.884644,37.427147 358.047699,27.590759 
	C354.843231,26.078047 351.383179,25.106827 347.660095,23.243284 
	C345.358429,22.479177 343.094543,21.564423 340.748901,20.975491 
	C325.853119,17.235556 310.939301,13.567587 295.566925,9.192529 
	C289.105133,8.462236 282.655579,7.275906 276.178864,7.102269 
	C264.795227,6.797083 253.394989,7.111440 241.119980,7.025495 
	C222.338730,8.346788 203.808746,11.064714 185.076614,16.997793 
	C167.870132,21.728460 151.717911,28.966730 135.568848,37.904179 
	C126.891319,43.311214 118.009750,48.422771 109.605919,54.226139 
	C103.716637,58.293049 98.479332,63.304077 92.330948,68.179375 
	C83.201447,77.403000 74.071945,86.626625 64.344154,96.204536 
	C63.608688,97.255348 62.873787,98.306557 62.137657,99.356895 
	C58.741173,104.203117 55.344341,109.049110 51.322292,114.185333 
	C47.199776,120.763084 43.077255,127.340828 38.344791,134.281830 
	C34.527462,142.171875 30.710129,150.061920 26.269255,158.340149 
	C23.495167,166.525894 20.721079,174.711655 17.303434,183.314957 
	C15.163874,192.862259 13.024313,202.409546 10.229136,212.437012 
	C9.208488,220.623337 8.187840,228.809662 7.032815,237.925339 
	C7.077481,246.282913 7.122147,254.640503 7.033978,263.925720 
	C7.744982,272.949310 8.455987,281.972900 9.035546,291.846619 
	C11.318203,302.579010 13.600859,313.311371 15.970840,324.847015 
	C20.609274,337.245300 25.247709,349.643585 30.002857,362.765778 
	C55.804333,417.645813 96.044823,458.094727 151.643677,484.163300 
	C155.326050,485.873993 158.899063,487.897064 162.712906,489.232208 
	C171.414154,492.278290 180.233368,494.987396 189.691208,498.209625 
	C191.217468,498.688751 192.714172,499.321167 194.274811,499.621887 
	C203.509735,501.401642 212.759506,503.104340 222.844971,504.967041 
	C232.897690,505.589142 242.950409,506.211243 253.932602,506.959442 
	C263.289581,506.583984 272.646576,506.208496 282.880829,505.959381 
	C290.934174,504.678162 298.987488,503.396942 307.877960,502.019592 
	C315.603821,500.052765 323.329651,498.085938 331.835846,496.014862 
	C339.926086,493.026398 348.016296,490.037964 356.830017,486.977356 
	C363.900360,483.356628 370.970703,479.735901 378.756104,475.995026 
	C385.518951,471.700287 392.281769,467.405548 399.676697,462.811035 
z"/>
<path fill="#EE5D37" opacity="1.000000" stroke="none" 
	d="
M506.833221,272.998749 
	C505.414581,284.285736 504.261108,295.614868 502.477448,306.843872 
	C501.415985,313.526031 499.363495,320.050812 497.145142,326.665253 
	C494.950104,325.217194 493.316162,323.800598 491.790344,322.275787 
	C462.027008,292.532501 432.298279,262.754517 402.475037,233.071442 
	C400.420593,231.026627 397.679962,229.671204 395.182373,227.532455 
	C395.156403,206.379013 395.206482,185.688278 395.597382,165.037628 
	C397.916840,166.509827 400.131073,167.705704 401.839264,169.409058 
	C434.925903,202.401489 467.943268,235.463333 501.021271,268.464417 
	C502.747894,270.187042 504.886444,271.496765 506.833221,272.998749 
z"/>
<path fill="#F16A29" opacity="1.000000" stroke="none" 
	d="
M490.832489,167.999054 
	C494.220551,178.623505 497.822937,189.186279 500.905273,199.898682 
	C502.423157,205.174057 502.979218,210.726166 503.555176,216.537888 
	C501.148956,215.504166 498.911438,214.332962 497.203674,212.630432 
	C464.757843,180.283768 432.391632,147.857254 399.932129,115.524368 
	C398.131653,113.730934 395.666046,112.605255 393.315887,110.907120 
	C389.076294,106.447510 385.030792,102.249550 380.899841,97.718384 
	C379.375488,95.589371 378.090149,93.640350 376.474640,92.020660 
	C351.116730,66.597275 325.700378,41.232224 300.361298,15.790119 
	C298.656891,14.078773 297.462830,11.859124 296.031403,9.875894 
	C310.939301,13.567587 325.853119,17.235556 340.748901,20.975491 
	C343.094543,21.564423 345.358429,22.479177 347.918884,23.915791 
	C349.530457,26.637089 350.580994,28.987316 352.280060,30.690645 
	C396.828064,75.350121 441.437317,119.948547 486.074921,164.518555 
	C487.449127,165.890671 489.237305,166.848221 490.832489,167.999054 
z"/>
<path fill="#ED5441" opacity="1.000000" stroke="none" 
	d="
M395.258423,227.995178 
	C397.679962,229.671204 400.420593,231.026627 402.475037,233.071442 
	C432.298279,262.754517 462.027008,292.532501 491.790344,322.275787 
	C493.316162,323.800598 494.950104,325.217194 496.819763,326.866943 
	C494.379028,335.477753 492.105042,344.088379 488.800781,352.283569 
	C485.353149,360.834351 480.912811,368.984894 476.465027,377.244812 
	C475.081207,376.020111 474.232788,374.767242 473.182770,373.715637 
	C449.174774,349.671753 425.165802,325.628754 401.071198,301.671906 
	C399.484924,300.094727 397.213562,299.206604 395.184479,297.535004 
	C395.158203,274.046417 395.208313,251.020798 395.258423,227.995178 
z"/>
<path fill="#A42B7A" opacity="1.000000" stroke="none" 
	d="
M9.166990,290.996490 
	C8.455987,281.972900 7.744982,272.949310 7.417230,263.560089 
	C9.576730,264.672760 11.482215,266.021667 13.110388,267.648163 
	C58.699169,313.189972 104.250420,358.769348 149.859741,404.290588 
	C151.691681,406.118988 154.029678,407.440369 156.248016,409.428589 
	C156.481903,412.431305 156.599686,415.003448 156.738846,418.042053 
	C160.794052,418.042053 164.396790,418.042053 168.035583,418.396393 
	C169.465256,420.751251 170.597702,423.011749 172.291672,424.713257 
	C197.765579,450.300079 223.325424,475.801331 248.815262,501.372314 
	C250.421219,502.983337 251.616699,505.003540 253.003128,506.833374 
	C242.950409,506.211243 232.897690,505.589142 222.385345,504.553925 
	C220.625885,502.269257 219.575241,500.148804 217.990387,498.561981 
	C150.124924,430.613190 82.216156,362.707703 14.277038,294.832581 
	C12.785209,293.342163 10.879589,292.265930 9.166990,290.996490 
z"/>
<path fill="#F0652F" opacity="1.000000" stroke="none" 
	d="
M393.510010,111.168777 
	C395.666046,112.605255 398.131653,113.730934 399.932129,115.524368 
	C432.391632,147.857254 464.757843,180.283768 497.203674,212.630432 
	C498.911438,214.332962 501.148956,215.504166 503.486084,216.961197 
	C504.554810,220.634720 505.778503,224.251495 505.911774,227.908005 
	C506.447998,242.622147 506.647125,257.348572 506.902008,272.534607 
	C504.886444,271.496765 502.747894,270.187042 501.021271,268.464417 
	C467.943268,235.463333 434.925903,202.401489 401.839264,169.409058 
	C400.131073,167.705704 397.916840,166.509827 395.521484,164.574554 
	C395.092468,151.668808 395.228607,139.263428 394.997559,126.864876 
	C394.899933,121.625420 394.029327,116.400368 393.510010,111.168777 
z"/>
<path fill="#EE5D37" opacity="1.000000" stroke="none" 
	d="
M185.851944,16.968672 
	C203.808746,11.064714 222.338730,8.346788 241.658615,7.418156 
	C244.193527,10.435853 245.921890,13.327384 248.227264,15.644956 
	C273.073975,40.623428 298.024902,65.498184 322.893097,90.455360 
	C324.491089,92.059067 325.641663,94.108589 326.539185,96.040619 
	C305.052551,96.071289 284.027069,96.012062 262.965271,95.598816 
	C261.535278,93.245964 260.401306,90.988907 258.708771,89.287376 
	C236.546143,67.006760 214.312317,44.796864 192.069412,22.596245 
	C190.093277,20.623850 187.928894,18.840061 185.851944,16.968672 
z"/>
<path fill="#9D297E" opacity="1.000000" stroke="none" 
	d="
M9.101269,291.421570 
	C10.879589,292.265930 12.785209,293.342163 14.277038,294.832581 
	C82.216156,362.707703 150.124924,430.613190 217.990387,498.561981 
	C219.575241,500.148804 220.625885,502.269257 221.964996,504.486908 
	C212.759506,503.104340 203.509735,501.401642 194.274811,499.621887 
	C192.714172,499.321167 191.217468,498.688751 189.308533,497.675415 
	C187.743210,495.386902 186.809555,493.384003 185.341995,491.914154 
	C130.637085,437.124084 75.889351,382.376709 21.100578,327.670471 
	C19.625319,326.197418 17.634115,325.241089 15.883511,324.043762 
	C13.600859,313.311371 11.318203,302.579010 9.101269,291.421570 
z"/>
<path fill="#ED5441" opacity="1.000000" stroke="none" 
	d="
M185.464279,16.983234 
	C187.928894,18.840061 190.093277,20.623850 192.069412,22.596245 
	C214.312317,44.796864 236.546143,67.006760 258.708771,89.287376 
	C260.401306,90.988907 261.535278,93.245964 262.503937,95.688705 
	C239.053146,96.072289 216.027298,96.011971 192.908783,95.625862 
	C192.066116,94.224724 191.456406,93.009720 190.545410,92.094658 
	C172.431259,73.899574 154.282242,55.739170 136.140305,37.571743 
	C151.717911,28.966730 167.870132,21.728460 185.464279,16.983234 
z"/>
<path fill="#BB326E" opacity="1.000000" stroke="none" 
	d="
M10.884751,211.956848 
	C13.024313,202.409546 15.163874,192.862259 17.808840,183.391739 
	C18.844561,184.108200 19.327108,184.795639 19.911993,185.380768 
	C63.800461,229.289062 107.690361,273.195923 151.627075,317.055908 
	C152.869202,318.295898 154.617325,319.028992 156.244507,320.455139 
	C156.283020,331.940552 156.206573,342.969330 155.791565,353.913788 
	C153.530243,352.281311 151.445282,350.895569 149.708466,349.161194 
	C106.239433,305.752594 62.820400,262.293915 19.334686,218.902069 
	C16.765776,216.338715 13.712580,214.260712 10.884751,211.956848 
z"/>
<path fill="#EB4B4B" opacity="1.000000" stroke="none" 
	d="
M395.260803,297.997986 
	C397.213562,299.206604 399.484924,300.094727 401.071198,301.671906 
	C425.165802,325.628754 449.174774,349.671753 473.182770,373.715637 
	C474.232788,374.767242 475.081207,376.020111 476.212097,377.524658 
	C468.940948,391.570496 460.385406,404.522095 450.174652,416.349915 
	C449.553955,417.068909 449.171112,417.993256 448.180878,418.689453 
	C443.492096,414.573914 439.225098,410.666382 435.122284,406.593445 
	C423.718567,395.272675 412.425110,383.840485 400.971436,372.570831 
	C399.408813,371.033325 397.180908,370.171997 395.184265,368.534729 
	C395.158569,344.713898 395.209686,321.355957 395.260803,297.997986 
z"/>
<path fill="#C63569" opacity="1.000000" stroke="none" 
	d="
M156.129501,319.998444 
	C154.617325,319.028992 152.869202,318.295898 151.627075,317.055908 
	C107.690361,273.195923 63.800461,229.289062 19.911993,185.380768 
	C19.327108,184.795639 18.844561,184.108200 18.130619,183.182953 
	C20.721079,174.711655 23.495167,166.525894 26.868721,158.328949 
	C31.205814,161.605621 35.134186,164.702255 38.651699,168.210800 
	C75.866470,205.330658 113.005028,242.526901 150.217773,279.648804 
	C151.930756,281.357605 154.147903,282.560974 156.245453,284.456268 
	C156.283600,296.608002 156.206543,308.303223 156.129501,319.998444 
z"/>
<path fill="#F0652F" opacity="1.000000" stroke="none" 
	d="
M327.000366,95.950729 
	C325.641663,94.108589 324.491089,92.059067 322.893097,90.455360 
	C298.024902,65.498184 273.073975,40.623428 248.227264,15.644956 
	C245.921890,13.327384 244.193527,10.435853 242.099487,7.488575 
	C253.394989,7.111440 264.795227,6.797083 276.178864,7.102269 
	C282.655579,7.275906 289.105133,8.462236 295.799164,9.534210 
	C297.462830,11.859124 298.656891,14.078773 300.361298,15.790119 
	C325.700378,41.232224 351.116730,66.597275 376.474640,92.020660 
	C378.090149,93.640350 379.375488,95.589371 380.503906,97.689674 
	C376.143250,97.513626 371.995270,96.229713 368.061920,96.708633 
	C357.751495,97.964043 351.312286,104.340027 347.625916,113.905991 
	C345.537476,112.877426 343.772278,111.938812 342.004028,110.632622 
	C344.545532,105.619331 347.090088,100.973625 349.841217,95.950722 
	C342.174927,95.950722 334.587646,95.950722 327.000366,95.950729 
z"/>
<path fill="#B22F73" opacity="1.000000" stroke="none" 
	d="
M10.556944,212.196930 
	C13.712580,214.260712 16.765776,216.338715 19.334686,218.902069 
	C62.820400,262.293915 106.239433,305.752594 149.708466,349.161194 
	C151.445282,350.895569 153.530243,352.281311 155.906982,354.370392 
	C156.284882,364.273895 156.208771,373.636475 155.793930,382.914703 
	C153.532288,381.282379 151.446838,379.897186 149.710175,378.162781 
	C104.122200,332.634674 58.577652,287.063141 12.984317,241.540436 
	C11.255880,239.814682 9.115568,238.501450 7.167192,236.995987 
	C8.187840,228.809662 9.208488,220.623337 10.556944,212.196930 
z"/>
<path fill="#CF3864" opacity="1.000000" stroke="none" 
	d="
M156.130249,283.999756 
	C154.147903,282.560974 151.930756,281.357605 150.217773,279.648804 
	C113.005028,242.526901 75.866470,205.330658 38.651699,168.210800 
	C35.134186,164.702255 31.205814,161.605621 27.180492,158.134857 
	C30.710129,150.061920 34.527462,142.171875 38.834076,134.383575 
	C39.854076,135.123001 40.338112,135.807358 40.922176,136.391739 
	C77.809502,173.298523 114.697060,210.205124 151.633896,247.062332 
	C152.874466,248.300247 154.619720,249.032410 156.244843,250.456802 
	C156.283401,261.942108 156.206833,272.970947 156.130249,283.999756 
z"/>
<path fill="#AB2D76" opacity="1.000000" stroke="none" 
	d="
M7.100004,237.460663 
	C9.115568,238.501450 11.255880,239.814682 12.984317,241.540436 
	C58.577652,287.063141 104.122200,332.634674 149.710175,378.162781 
	C151.446838,379.897186 153.532288,381.282379 155.909912,383.371063 
	C156.287048,392.273865 156.209488,400.635925 156.131927,408.997986 
	C154.029678,407.440369 151.691681,406.118988 149.859741,404.290588 
	C104.250420,358.769348 58.699169,313.189972 13.110388,267.648163 
	C11.482215,266.021667 9.576730,264.672760 7.483647,263.096252 
	C7.122147,254.640503 7.077481,246.282913 7.100004,237.460663 
z"/>
<path fill="#952681" opacity="1.000000" stroke="none" 
	d="
M15.927174,324.445374 
	C17.634115,325.241089 19.625319,326.197418 21.100578,327.670471 
	C75.889351,382.376709 130.637085,437.124084 185.341995,491.914154 
	C186.809555,493.384003 187.743210,495.386902 188.965256,497.487305 
	C180.233368,494.987396 171.414154,492.278290 162.712906,489.232208 
	C158.899063,487.897064 155.326050,485.873993 151.284546,483.652161 
	C149.743820,481.387726 148.810410,479.386810 147.344391,477.917206 
	C109.974693,440.455597 72.558632,403.040192 35.098564,365.668976 
	C33.623260,364.197144 31.635267,363.239227 29.886147,362.041870 
	C25.247709,349.643585 20.609274,337.245300 15.927174,324.445374 
z"/>
<path fill="#D93B5F" opacity="1.000000" stroke="none" 
	d="
M156.129730,250.000305 
	C154.619720,249.032410 152.874466,248.300247 151.633896,247.062332 
	C114.697060,210.205124 77.809502,173.298523 40.922176,136.391739 
	C40.338112,135.807358 39.854076,135.123001 39.139050,134.201935 
	C43.077255,127.340828 47.199776,120.763084 51.818321,114.326050 
	C52.843777,115.106110 53.325283,115.793343 53.909500,116.377930 
	C86.467010,148.955872 119.024147,181.534241 151.632629,214.061111 
	C152.874146,215.299515 154.620102,216.032257 156.246490,217.457031 
	C156.284561,228.609070 156.207138,239.304688 156.129730,250.000305 
z"/>
<path fill="#E94256" opacity="1.000000" stroke="none" 
	d="
M64.942444,95.850250 
	C74.071945,86.626625 83.201447,77.403000 92.878815,68.275681 
	C103.123146,77.919937 112.786598,87.501862 122.548645,96.982269 
	C124.169983,98.556831 126.221321,99.688606 127.906052,101.316467 
	C119.264603,109.755028 116.774055,119.065575 120.496864,128.678406 
	C124.242004,138.348892 133.014175,143.935455 144.522797,144.004852 
	C150.682220,144.041992 156.841446,144.112640 163.100098,144.487610 
	C164.133270,146.830612 165.067078,148.854141 165.556580,150.953888 
	C162.364365,151.030090 159.616470,151.030090 156.132736,151.030090 
	C156.132736,163.176590 156.132736,174.589127 155.767395,185.968475 
	C153.503647,184.692276 151.323563,183.732208 149.748764,182.164215 
	C122.648781,155.181046 95.610909,128.135406 68.615746,101.047333 
	C67.139458,99.565964 66.155556,97.593903 64.942444,95.850250 
z"/>
<path fill="#E94255" opacity="1.000000" stroke="none" 
	d="
M395.261047,368.997559 
	C397.180908,370.171997 399.408813,371.033325 400.971436,372.570831 
	C412.425110,383.840485 423.718567,395.272675 435.122284,406.593445 
	C439.225098,410.666382 443.492096,414.573914 447.869019,418.846222 
	C437.949738,429.095490 427.845642,439.055420 417.267487,448.751465 
	C401.672760,433.310638 386.564453,418.121307 371.400208,402.987976 
	C370.504852,402.094482 369.159912,401.651489 367.931885,400.538239 
	C367.901550,386.051849 367.963470,372.026062 368.362885,358.094360 
	C370.700775,358.793823 372.701202,359.399231 374.782043,360.466675 
	C374.862518,367.192566 374.862518,373.456390 374.862518,379.740845 
	C381.962860,379.740845 388.359528,379.740845 395.261047,379.740845 
	C395.261047,375.937592 395.261047,372.467560 395.261047,368.997559 
z"/>
<path fill="#F16E24" opacity="1.000000" stroke="none" 
	d="
M490.893372,167.622147 
	C489.237305,166.848221 487.449127,165.890671 486.074921,164.518555 
	C441.437317,119.948547 396.828064,75.350121 352.280060,30.690645 
	C350.580994,28.987316 349.530457,26.637089 348.109497,24.236736 
	C351.383179,25.106827 354.843231,26.078047 358.047699,27.590759 
	C378.884644,37.427147 398.526489,49.045441 416.495331,63.717464 
	C435.146851,78.946922 450.895233,96.674049 464.483246,116.270248 
	C475.424042,132.048767 484.069366,149.245621 490.893372,167.622147 
z"/>
<path fill="#EB4B4B" opacity="1.000000" stroke="none" 
	d="
M128.073959,101.024994 
	C126.221321,99.688606 124.169983,98.556831 122.548645,96.982269 
	C112.786598,87.501862 103.123146,77.919937 93.188766,68.132729 
	C98.479332,63.304077 103.716637,58.293049 109.605919,54.226139 
	C118.009750,48.422771 126.891319,43.311214 135.854584,37.737961 
	C154.282242,55.739170 172.431259,73.899574 190.545410,92.094658 
	C191.456406,93.009720 192.066116,94.224724 192.447372,95.715157 
	C177.025925,96.146042 161.971710,96.292236 146.921158,96.118782 
	C140.109970,96.040276 133.811600,97.292076 128.073959,101.024994 
z"/>
<path fill="#E23E5B" opacity="1.000000" stroke="none" 
	d="
M64.643303,96.027397 
	C66.155556,97.593903 67.139458,99.565964 68.615746,101.047333 
	C95.610909,128.135406 122.648781,155.181046 149.748764,182.164215 
	C151.323563,183.732208 153.503647,184.692276 155.882263,186.424881 
	C156.285294,196.943207 156.208145,206.971924 156.130997,217.000626 
	C154.620102,216.032257 152.874146,215.299515 151.632629,214.061111 
	C119.024147,181.534241 86.467010,148.955872 53.909500,116.377930 
	C53.325283,115.793343 52.843777,115.106110 52.130989,114.180969 
	C55.344341,109.049110 58.741173,104.203117 62.137657,99.356895 
	C62.873787,98.306557 63.608688,97.255348 64.643303,96.027397 
z"/>
<path fill="#AC2D76" opacity="1.000000" stroke="none" 
	d="
M253.467865,506.896423 
	C251.616699,505.003540 250.421219,502.983337 248.815262,501.372314 
	C223.325424,475.801331 197.765579,450.300079 172.291672,424.713257 
	C170.597702,423.011749 169.465256,420.751251 168.496460,418.304626 
	C178.613983,417.919342 188.306686,417.980133 198.035461,418.395325 
	C199.466187,420.751587 200.599640,423.013458 202.294754,424.716217 
	C227.432922,449.967743 252.657715,475.133026 277.811951,500.368622 
	C279.419006,501.980896 280.615875,504.002075 282.003571,505.833008 
	C272.646576,506.208496 263.289581,506.583984 253.467865,506.896423 
z"/>
<path fill="#C53569" opacity="1.000000" stroke="none" 
	d="
M356.106506,487.049500 
	C348.016296,490.037964 339.926086,493.026398 331.262695,495.779999 
	C329.226318,493.963318 327.814026,492.330627 326.292297,490.807343 
	C304.233368,468.726166 282.131561,446.687622 260.143036,424.536621 
	C258.375183,422.755646 257.362610,420.224915 256.460144,417.951721 
	C267.614075,417.921661 278.306946,417.982513 289.092102,418.369507 
	C290.640839,420.481720 291.960663,422.403046 293.574554,424.033234 
	C314.394135,445.062775 335.255615,466.050873 356.106506,487.049500 
z"/>
<path fill="#B53071" opacity="1.000000" stroke="none" 
	d="
M282.442200,505.896179 
	C280.615875,504.002075 279.419006,501.980896 277.811951,500.368622 
	C252.657715,475.133026 227.432922,449.967743 202.294754,424.716217 
	C200.599640,423.013458 199.466187,420.751587 198.496307,418.303345 
	C208.280411,417.918304 217.639725,417.979675 227.035187,418.395447 
	C228.467743,420.753326 229.603333,423.016388 231.299881,424.721191 
	C255.046600,448.583466 278.886169,472.353333 302.640533,496.208038 
	C304.355408,497.930176 305.585388,500.135223 307.040833,502.115723 
	C298.987488,503.396942 290.934174,504.678162 282.442200,505.896179 
z"/>
<path fill="#BD326D" opacity="1.000000" stroke="none" 
	d="
M307.459412,502.067657 
	C305.585388,500.135223 304.355408,497.930176 302.640533,496.208038 
	C278.886169,472.353333 255.046600,448.583466 231.299881,424.721191 
	C229.603333,423.016388 228.467743,420.753326 227.496246,418.304382 
	C237.280472,417.920135 246.639755,417.981384 255.999054,418.042633 
	C257.362610,420.224915 258.375183,422.755646 260.143036,424.536621 
	C282.131561,446.687622 304.233368,468.726166 326.292297,490.807343 
	C327.814026,492.330627 329.226318,493.963318 330.872498,495.832123 
	C323.329651,498.085938 315.603821,500.052765 307.459412,502.067657 
z"/>
<path fill="#CF3864" opacity="1.000000" stroke="none" 
	d="
M356.468262,487.013428 
	C335.255615,466.050873 314.394135,445.062775 293.574554,424.033234 
	C291.960663,422.403046 290.640839,420.481720 289.553162,418.279114 
	C301.280884,417.922119 312.639801,417.981659 324.091003,418.367523 
	C325.520905,420.361389 326.718353,422.168488 328.217834,423.674957 
	C343.456238,438.984070 358.785980,454.202606 373.960602,469.574371 
	C375.721924,471.358582 376.699890,473.916138 378.041046,476.115173 
	C370.970703,479.735901 363.900360,483.356628 356.468262,487.013428 
z"/>
<path fill="#8F2584" opacity="1.000000" stroke="none" 
	d="
M29.944504,362.403809 
	C31.635267,363.239227 33.623260,364.197144 35.098564,365.668976 
	C72.558632,403.040192 109.974693,440.455597 147.344391,477.917206 
	C148.810410,479.386810 149.743820,481.387726 150.964661,483.487091 
	C96.044823,458.094727 55.804333,417.645813 29.944504,362.403809 
z"/>
<path fill="#D93B5F" opacity="1.000000" stroke="none" 
	d="
M378.398560,476.055115 
	C376.699890,473.916138 375.721924,471.358582 373.960602,469.574371 
	C358.785980,454.202606 343.456238,438.984070 328.217834,423.674957 
	C326.718353,422.168488 325.520905,420.361389 324.552185,418.277039 
	C335.613586,417.920685 346.306122,417.981140 357.034821,418.395966 
	C358.463867,420.750000 359.610992,422.989044 361.288788,424.711182 
	C373.815002,437.568573 386.446259,450.323639 399.044586,463.110840 
	C392.281769,467.405548 385.518951,471.700287 378.398560,476.055115 
z"/>
<path fill="#E23E5B" opacity="1.000000" stroke="none" 
	d="
M399.360657,462.960938 
	C386.446259,450.323639 373.815002,437.568573 361.288788,424.711182 
	C359.610992,422.989044 358.463867,420.750000 357.483215,418.306213 
	C361.112579,417.862061 364.329712,417.862061 368.024170,417.862061 
	C368.024170,411.576691 368.024170,406.287781 368.024170,400.998871 
	C369.159912,401.651489 370.504852,402.094482 371.400208,402.987976 
	C386.564453,418.121307 401.672760,433.310638 416.916870,448.803589 
	C411.252411,453.683380 405.464569,458.247223 399.360657,462.960938 
z"/>
<path fill="#FFFFFE" opacity="1.000000" stroke="none" 
	d="
M395.184265,368.534729 
	C395.261047,372.467560 395.261047,375.937592 395.261047,379.740845 
	C388.359528,379.740845 381.962860,379.740845 374.862518,379.740845 
	C374.862518,373.456390 374.862518,367.192566 374.861847,360.003601 
	C374.816650,336.063843 374.772156,313.049255 374.811523,289.577087 
	C374.839172,285.401642 374.782990,281.683777 374.796265,277.503998 
	C374.813904,248.696365 374.762054,220.350616 374.790894,191.542114 
	C374.871582,175.525772 374.871582,159.972183 374.871582,144.905960 
	C369.972809,143.774994 365.413940,143.376038 361.411316,141.671112 
	C351.022034,137.245804 346.890015,128.252808 347.949127,113.995949 
	C351.312286,104.340027 357.751495,97.964043 368.061920,96.708633 
	C371.995270,96.229713 376.143250,97.513626 380.589355,98.022888 
	C385.030792,102.249550 389.076294,106.447510 393.315887,110.907120 
	C394.029327,116.400368 394.899933,121.625420 394.997559,126.864876 
	C395.228607,139.263428 395.092468,151.668808 395.180664,164.534485 
	C395.206482,185.688278 395.156403,206.379013 395.182373,227.532471 
	C395.208313,251.020798 395.158203,274.046417 395.184448,297.535004 
	C395.209686,321.355957 395.158569,344.713898 395.184265,368.534729 
z"/>
<path fill="#FEFCFD" opacity="1.000000" stroke="none" 
	d="
M367.931885,400.538239 
	C368.024170,406.287781 368.024170,411.576691 368.024170,417.862061 
	C364.329712,417.862061 361.112579,417.862061 357.447021,417.951843 
	C346.306122,417.981140 335.613586,417.920685 324.459900,417.950714 
	C312.639801,417.981659 301.280884,417.922119 289.460907,417.952942 
	C278.306946,417.982513 267.614075,417.921661 256.460144,417.951721 
	C246.639755,417.981384 237.280472,417.920135 227.460114,417.949951 
	C217.639725,417.979675 208.280411,417.918304 198.460236,417.948914 
	C188.306686,417.980133 178.613983,417.919342 168.460388,417.950287 
	C164.396790,418.042053 160.794052,418.042053 156.738846,418.042053 
	C156.599686,415.003448 156.481903,412.431305 156.248016,409.428589 
	C156.209488,400.635925 156.287048,392.273865 156.248627,383.455444 
	C156.208771,373.636475 156.284882,364.273895 156.245560,354.454681 
	C156.206573,342.969330 156.283020,331.940552 156.244476,320.455139 
	C156.206543,308.303223 156.283600,296.608002 156.245453,284.456268 
	C156.206833,272.970947 156.283401,261.942108 156.244843,250.456802 
	C156.207138,239.304688 156.284561,228.609070 156.246490,217.457031 
	C156.208145,206.971924 156.285294,196.943207 156.247589,186.458099 
	C156.132736,174.589127 156.132736,163.176590 156.132736,151.030090 
	C159.616470,151.030090 162.364365,151.030090 166.019745,151.029984 
	C185.951447,150.979050 204.975677,150.928223 224.463135,150.953629 
	C242.617599,150.978867 260.308838,150.927856 278.463318,150.952820 
	C296.949829,150.980469 314.973053,150.932129 333.459656,150.960815 
	C345.028534,151.037857 356.134094,151.037857 368.017792,151.037857 
	C368.017792,164.447556 368.017792,177.225174 367.927887,190.463684 
	C367.891418,219.278275 367.944855,247.631958 367.900757,276.439209 
	C367.867371,280.599884 367.931488,284.307007 367.915283,288.475922 
	C367.898438,311.958588 367.961914,334.979431 368.025391,358.000305 
	C367.963470,372.026062 367.901550,386.051849 367.931885,400.538239 
M309.076263,349.154297 
	C297.713318,349.208038 286.350403,349.261780 274.063232,349.160828 
	C260.454498,349.160828 246.845779,349.160828 233.211426,349.160828 
	C233.211426,351.821808 233.211426,353.873108 233.211426,356.023254 
	C248.394409,356.023254 263.196228,356.023254 278.919342,356.212616 
	C290.279327,356.151703 301.639282,356.090790 313.921173,356.213562 
	C325.319092,356.213562 336.716980,356.213562 348.068787,356.213562 
	C348.068787,353.515289 348.068787,351.586151 348.068787,349.311768 
	C335.173798,349.311768 322.587860,349.311768 309.076263,349.154297 
M291.929047,203.975113 
	C310.652130,203.975113 329.375244,203.975113 348.071869,203.975113 
	C348.071869,201.288147 348.071869,199.357056 348.071869,197.133499 
	C327.859344,197.133499 307.929504,197.133499 287.072937,196.984116 
	C269.063354,196.984116 251.053772,196.984116 233.105804,196.984116 
	C233.105804,199.671143 233.105804,201.602737 233.105804,203.836746 
	C252.577271,203.836746 271.789093,203.836746 291.929047,203.975113 
M305.069305,247.807236 
	C281.139526,247.807236 257.209747,247.807236 233.226898,247.807236 
	C233.226898,250.425385 233.226898,252.464752 233.226898,254.688156 
	C258.396881,254.688156 283.184509,254.688156 308.899841,254.858719 
	C321.843231,254.858719 334.786621,254.858719 348.061005,254.858719 
	C348.061005,252.339813 348.061005,250.301086 348.061005,247.977768 
	C333.855621,247.977768 319.923920,247.977768 305.069305,247.807236 
M175.635330,243.911484 
	C175.635330,254.936783 175.635330,265.962097 175.635330,277.135559 
	C187.559494,277.135559 198.781113,277.135559 210.914612,277.235016 
	C211.382370,275.640045 212.227142,274.051483 212.254379,272.449005 
	C212.392258,264.335358 212.317688,256.218109 212.317642,248.102127 
	C212.317627,245.711029 212.317642,243.319916 212.317642,240.686569 
	C200.481018,240.686569 189.556656,240.630386 178.635330,240.786789 
	C177.701340,240.800156 176.787582,242.227264 175.635330,243.911484 
M175.627960,295.911377 
	C175.627960,306.494873 175.627960,317.078369 175.627960,327.949646 
	C187.130875,327.949646 198.064056,327.949646 209.892380,328.111053 
	C210.706451,326.850800 212.186371,325.610565 212.224899,324.327026 
	C212.449310,316.848450 212.335495,309.359772 212.335815,301.874481 
	C212.335968,298.468536 212.335846,295.062592 212.335846,291.290771 
	C200.324402,291.290771 189.203857,291.217255 178.089722,291.450104 
	C177.318542,291.466278 176.595093,293.760895 175.627960,295.911377 
M309.969482,298.448425 
	C284.404663,298.448425 258.839813,298.448425 233.223480,298.448425 
	C233.223480,301.109039 233.223480,303.157562 233.223480,305.393188 
	C260.030090,305.393188 286.457123,305.393188 313.805054,305.654907 
	C325.178101,305.654907 336.551117,305.654907 348.050415,305.654907 
	C348.050415,302.914551 348.050415,300.736176 348.050415,298.614685 
	C335.347534,298.614685 323.112091,298.614685 309.969482,298.448425 
M175.629166,348.910583 
	C175.629166,358.802185 175.629166,368.693787 175.629166,378.836884 
	C186.481461,378.836884 196.739517,378.836884 207.892319,378.974884 
	C209.297546,378.883606 210.702759,378.792358 211.986847,378.708954 
	C211.986847,366.311005 211.986847,354.432281 211.986847,342.350891 
	C199.771835,342.350891 187.897797,342.350891 175.606369,342.350891 
	C175.697769,344.425903 175.776398,346.210846 175.629166,348.910583 
M176.647903,190.055405 
	C176.280197,191.579926 175.623184,193.099152 175.595108,194.629898 
	C175.475967,201.122955 175.543365,207.619415 175.542908,214.114639 
	C175.542633,218.196793 175.542862,222.278946 175.542862,226.528290 
	C188.153671,226.528290 199.901794,226.528290 211.929596,226.528290 
	C211.929596,214.249695 211.929596,202.244370 211.929596,189.930222 
	C200.228653,189.930222 188.926971,189.930222 176.647903,190.055405 
M261.499939,219.804871 
	C271.076874,219.804871 280.653809,219.804871 290.195007,219.804871 
	C290.195007,216.911545 290.195007,214.864441 290.195007,212.829056 
	C270.881195,212.829056 252.013260,212.829056 233.187256,212.829056 
	C233.187256,215.304352 233.187256,217.353394 233.187256,219.804794 
	C242.564789,219.804794 251.532349,219.804794 261.499939,219.804871 
M257.500061,263.168060 
	C249.404205,263.168060 241.308365,263.168060 233.153015,263.168060 
	C233.153015,265.869720 233.153015,267.937225 233.153015,270.075500 
	C252.362366,270.075500 271.230927,270.075500 290.184937,270.075500 
	C290.184937,267.698669 290.184937,265.640411 290.184937,263.167877 
	C279.369934,263.167877 268.934998,263.167877 257.500061,263.168060 
M248.503799,314.018951 
	C243.406448,314.018951 238.309097,314.018951 233.186737,314.018951 
	C233.186737,316.664368 233.186737,318.710785 233.186737,320.796356 
	C252.380875,320.796356 271.219788,320.796356 290.175507,320.796356 
	C290.175507,318.420380 290.175507,316.363434 290.175507,314.018921 
	C276.375275,314.018921 262.938690,314.018921 248.503799,314.018951 
M232.839157,369.409607 
	C232.641083,372.800507 235.178894,371.949127 236.972351,371.954498 
	C251.592178,371.998199 266.212219,371.977997 280.832184,371.977264 
	C283.926727,371.977112 287.021240,371.977234 290.151245,371.977234 
	C290.151245,369.268738 290.151245,367.220825 290.151245,364.885895 
	C271.832245,364.885895 253.900192,364.938873 235.969086,364.831879 
	C233.101120,364.814758 232.584610,366.138855 232.839157,369.409607 
z"/>
<path fill="#FFFEFE" opacity="1.000000" stroke="none" 
	d="
M127.906052,101.316467 
	C133.811600,97.292076 140.109970,96.040276 146.921158,96.118782 
	C161.971710,96.292236 177.025925,96.146042 192.540054,96.040947 
	C216.027298,96.011971 239.053146,96.072289 262.540283,96.042709 
	C284.027069,96.012062 305.052551,96.071289 326.539185,96.040619 
	C334.587646,95.950722 342.174927,95.950722 349.841217,95.950722 
	C347.090088,100.973625 344.545532,105.619331 341.782227,110.949295 
	C338.081238,123.949883 341.859406,134.313904 351.243134,144.162872 
	C343.423340,144.162872 336.709930,144.162872 329.532349,144.096191 
	C311.045776,144.075958 293.023468,144.122391 274.536865,144.099899 
	C256.381561,144.076828 238.690536,144.122696 220.535309,144.099915 
	C201.047668,144.076904 182.024216,144.122528 163.000763,144.168152 
	C156.841446,144.112640 150.682220,144.041992 144.522797,144.004852 
	C133.014175,143.935455 124.242004,138.348892 120.496864,128.678406 
	C116.774055,119.065575 119.264603,109.755028 127.906052,101.316467 
z"/>
<path fill="#EF613A" opacity="1.000000" stroke="none" 
	d="
M329.996552,144.162872 
	C336.709930,144.162872 343.423340,144.162872 351.243134,144.162872 
	C341.859406,134.313904 338.081238,123.949883 341.785248,111.316879 
	C343.772278,111.938812 345.537476,112.877426 347.625916,113.905991 
	C346.890015,128.252808 351.022034,137.245804 361.411316,141.671112 
	C365.413940,143.376038 369.972809,143.774994 374.871582,144.905960 
	C374.871582,159.972183 374.871582,175.525772 374.434540,191.528748 
	C372.004272,191.319672 370.011017,190.661224 368.017792,190.002777 
	C368.017792,177.225174 368.017792,164.447556 368.017792,151.037857 
	C356.134094,151.037857 345.028534,151.037857 333.364136,150.638397 
	C331.869049,148.213593 330.932800,146.188232 329.996552,144.162872 
z"/>
<path fill="#EB494D" opacity="1.000000" stroke="none" 
	d="
M163.100098,144.487610 
	C182.024216,144.122528 201.047668,144.076904 220.572601,144.440857 
	C222.049347,146.859421 223.024612,148.868408 223.999878,150.877380 
	C204.975677,150.928223 185.951447,150.979050 166.464066,150.953781 
	C165.067078,148.854141 164.133270,146.830612 163.100098,144.487610 
z"/>
<path fill="#EA4750" opacity="1.000000" stroke="none" 
	d="
M368.362854,358.094360 
	C367.961914,334.979431 367.898438,311.958588 368.273163,288.503906 
	C370.716797,288.724945 372.722198,289.379791 374.727661,290.034637 
	C374.772156,313.049255 374.816650,336.063843 374.781372,359.541565 
	C372.701202,359.399231 370.700775,358.793823 368.362854,358.094360 
z"/>
<path fill="#ED563F" opacity="1.000000" stroke="none" 
	d="
M367.927887,190.463684 
	C370.011017,190.661224 372.004272,191.319672 374.353851,191.991486 
	C374.762054,220.350616 374.813904,248.696365 374.438202,277.493896 
	C372.006531,277.292358 370.002441,276.638977 367.998291,275.985626 
	C367.944855,247.631958 367.891418,219.278275 367.927887,190.463684 
z"/>
<path fill="#ED5A53" opacity="1.000000" stroke="none" 
	d="
M367.900787,276.439209 
	C370.002441,276.638977 372.006531,277.292358 374.368713,277.955811 
	C374.782990,281.683777 374.839172,285.401642 374.811523,289.577087 
	C372.722198,289.379791 370.716797,288.724945 368.353516,288.042114 
	C367.931488,284.307007 367.867371,280.599884 367.900787,276.439209 
z"/>
<path fill="#E94459" opacity="1.000000" stroke="none" 
	d="
M177.136597,189.992813 
	C188.926971,189.930222 200.228653,189.930222 211.929596,189.930222 
	C211.929596,202.244370 211.929596,214.249695 211.929596,226.528290 
	C199.901794,226.528290 188.153671,226.528290 175.542862,226.528290 
	C175.542862,222.278946 175.542633,218.196793 175.542908,214.114639 
	C175.543365,207.619415 175.475967,201.122955 175.595108,194.629898 
	C175.623184,193.099152 176.280197,191.579926 177.136597,189.992813 
M188.516556,210.062851 
	C186.335693,211.246277 184.154816,212.429718 181.172974,214.047791 
	C185.432236,217.411026 188.471970,219.811295 191.774475,222.419052 
	C196.843262,215.247574 201.595963,208.523300 206.519348,201.557556 
	C204.291428,200.009735 202.441803,198.724716 200.316574,197.248245 
	C197.501190,201.174896 194.985901,204.853760 192.261368,208.370514 
	C191.520081,209.327362 190.148270,209.795731 188.516556,210.062851 
z"/>
<path fill="#C3376D" opacity="1.000000" stroke="none" 
	d="
M175.855011,347.995789 
	C175.776398,346.210846 175.697769,344.425903 175.606369,342.350891 
	C187.897797,342.350891 199.771835,342.350891 211.986847,342.350891 
	C211.986847,354.432281 211.986847,366.311005 211.986847,378.708954 
	C210.702759,378.792358 209.297546,378.883606 207.407166,378.559265 
	C203.578812,374.750641 200.235596,371.357666 196.984741,367.633301 
	C200.166504,362.849640 203.255905,358.397400 206.457077,353.784058 
	C204.224731,352.213287 202.477386,350.983826 200.433151,349.545471 
	C197.431458,353.580414 194.575958,357.418793 191.419586,361.036072 
	C189.397903,359.028503 187.831223,357.052856 185.921906,355.497894 
	C182.679962,352.857605 179.222122,350.482391 175.855011,347.995789 
z"/>
<path fill="#E33E5A" opacity="1.000000" stroke="none" 
	d="
M312.884155,305.393188 
	C286.457123,305.393188 260.030090,305.393188 233.223480,305.393188 
	C233.223480,303.157562 233.223480,301.109039 233.223480,298.448425 
	C258.839813,298.448425 284.404663,298.448425 310.504150,298.843750 
	C311.653900,301.290436 312.269012,303.341827 312.884155,305.393188 
z"/>
<path fill="#D23E67" opacity="1.000000" stroke="none" 
	d="
M175.849457,294.995941 
	C176.595093,293.760895 177.318542,291.466278 178.089722,291.450104 
	C189.203857,291.217255 200.324402,291.290771 212.335846,291.290771 
	C212.335846,295.062592 212.335968,298.468536 212.335815,301.874481 
	C212.335495,309.359772 212.449310,316.848450 212.224899,324.327026 
	C212.186371,325.610565 210.706451,326.850800 209.409821,327.676453 
	C205.220047,323.471405 201.512817,319.700958 197.906342,315.597656 
	C200.765457,311.254364 203.523819,307.243896 206.446396,302.994659 
	C204.202728,301.422333 202.383392,300.147369 200.454391,298.795563 
	C197.889755,302.146027 195.606003,305.129578 192.971954,308.017487 
	C189.325439,305.024719 186.128662,302.002350 182.696106,299.276917 
	C180.601440,297.613708 178.143982,296.407440 175.849457,294.995941 
z"/>
<path fill="#E03E5C" opacity="1.000000" stroke="none" 
	d="
M175.864410,242.997620 
	C176.787582,242.227264 177.701340,240.800156 178.635330,240.786789 
	C189.556656,240.630386 200.481018,240.686569 212.317642,240.686569 
	C212.317642,243.319916 212.317627,245.711029 212.317642,248.102127 
	C212.317688,256.218109 212.392258,264.335358 212.254379,272.449005 
	C212.227142,274.051483 211.382370,275.640045 210.373550,276.846008 
	C207.194489,273.228973 204.556503,270.000916 202.054688,266.480347 
	C206.593170,262.260620 199.570984,261.586731 200.176956,258.532318 
	C201.349899,257.141907 202.682953,255.561691 203.539719,254.546066 
	C201.931442,252.320160 200.597534,250.473969 199.301834,248.680695 
	C197.051193,250.573196 195.464966,251.906998 193.822876,253.287781 
	C192.118591,251.690308 190.703491,250.363907 189.214417,248.968185 
	C188.080933,249.781723 187.166534,250.438004 185.953690,250.914490 
	C182.391632,248.155655 179.128036,245.576645 175.864410,242.997620 
z"/>
<path fill="#EA4452" opacity="1.000000" stroke="none" 
	d="
M307.972137,254.688156 
	C283.184509,254.688156 258.396881,254.688156 233.226898,254.688156 
	C233.226898,252.464752 233.226898,250.425385 233.226898,247.807236 
	C257.209747,247.807236 281.139526,247.807236 305.613647,248.236633 
	C306.762695,250.673416 307.367401,252.680786 307.972137,254.688156 
z"/>
<path fill="#CA3868" opacity="1.000000" stroke="none" 
	d="
M197.805573,315.930511 
	C201.512817,319.700958 205.220047,323.471405 208.962265,327.595764 
	C198.064056,327.949646 187.130875,327.949646 175.627960,327.949646 
	C175.627960,317.078369 175.627960,306.494873 175.738708,295.453674 
	C178.143982,296.407440 180.601440,297.613708 182.696106,299.276917 
	C186.128662,302.002350 189.325439,305.024719 192.837418,308.364746 
	C192.177826,309.996246 191.302475,311.184784 190.361954,312.461823 
	C188.828491,311.895050 187.489471,311.400177 185.938477,310.826904 
	C184.727341,312.733215 183.615601,314.483093 182.375381,316.435211 
	C185.504715,318.979126 188.444412,321.368866 191.538895,323.884430 
	C193.728928,321.104736 195.767258,318.517609 197.805573,315.930511 
z"/>
<path fill="#D93C60" opacity="1.000000" stroke="none" 
	d="
M201.918518,266.772858 
	C204.556503,270.000916 207.194489,273.228973 209.917603,276.796295 
	C198.781113,277.135559 187.559494,277.135559 175.635330,277.135559 
	C175.635330,265.962097 175.635330,254.936783 175.749878,243.454559 
	C179.128036,245.576645 182.391632,248.155655 185.803009,251.217255 
	C181.370941,255.531952 187.885437,256.443359 187.852402,259.504944 
	C186.713486,260.789581 185.330933,262.348999 183.889984,263.974335 
	C185.634003,265.880920 187.150177,267.538422 188.802261,269.344513 
	C190.773285,267.604492 192.330643,266.229614 194.012085,264.745209 
	C195.692917,266.281555 197.130402,267.595459 198.722198,269.050415 
	C199.823563,268.265625 200.871033,267.519257 201.918518,266.772858 
z"/>
<path fill="#ED5D61" opacity="1.000000" stroke="none" 
	d="
M260.999939,219.804840 
	C251.532349,219.804794 242.564789,219.804794 233.187256,219.804794 
	C233.187256,217.353394 233.187256,215.304352 233.187256,212.829056 
	C252.013260,212.829056 270.881195,212.829056 290.195007,212.829056 
	C290.195007,214.864441 290.195007,216.911545 290.195007,219.804871 
	C280.653809,219.804871 271.076874,219.804871 260.999939,219.804840 
z"/>
<path fill="#EA4B5C" opacity="1.000000" stroke="none" 
	d="
M258.000061,263.167969 
	C268.934998,263.167877 279.369934,263.167877 290.184937,263.167877 
	C290.184937,265.640411 290.184937,267.698669 290.184937,270.075500 
	C271.230927,270.075500 252.362366,270.075500 233.153015,270.075500 
	C233.153015,267.937225 233.153015,265.869720 233.153015,263.168060 
	C241.308365,263.168060 249.404205,263.168060 258.000061,263.167969 
z"/>
<path fill="#BC336F" opacity="1.000000" stroke="none" 
	d="
M196.892365,367.964691 
	C200.235596,371.357666 203.578812,374.750641 206.959808,378.490265 
	C196.739517,378.836884 186.481461,378.836884 175.629166,378.836884 
	C175.629166,368.693787 175.629166,358.802185 175.742096,348.453186 
	C179.222122,350.482391 182.679962,352.857605 185.921906,355.497894 
	C187.831223,357.052856 189.397903,359.028503 191.332367,361.269775 
	C191.546066,361.724579 191.112564,361.971466 190.914917,362.118713 
	C190.462830,362.474670 190.225922,362.701721 189.687775,362.943512 
	C183.840271,359.275238 184.797287,365.516815 182.130890,367.028656 
	C185.541489,369.780579 188.443420,372.122101 191.518753,374.603516 
	C193.435028,372.236053 195.163696,370.100372 196.892365,367.964691 
z"/>
<path fill="#EC5243" opacity="1.000000" stroke="none" 
	d="
M287.999695,197.133499 
	C307.929504,197.133499 327.859344,197.133499 348.071869,197.133499 
	C348.071869,199.357056 348.071869,201.288147 348.071869,203.975113 
	C329.375244,203.975113 310.652130,203.975113 291.427795,203.564926 
	C289.950928,201.147659 288.975311,199.140579 287.999695,197.133499 
z"/>
<path fill="#E0405E" opacity="1.000000" stroke="none" 
	d="
M249.002960,314.018921 
	C262.938690,314.018921 276.375275,314.018921 290.175507,314.018921 
	C290.175507,316.363434 290.175507,318.420380 290.175507,320.796356 
	C271.219788,320.796356 252.380875,320.796356 233.186737,320.796356 
	C233.186737,318.710785 233.186737,316.664368 233.186737,314.018951 
	C238.309097,314.018951 243.406448,314.018951 249.002960,314.018921 
z"/>
<path fill="#D23C65" opacity="1.000000" stroke="none" 
	d="
M232.835205,368.937256 
	C232.584610,366.138855 233.101120,364.814758 235.969086,364.831879 
	C253.900192,364.938873 271.832245,364.885895 290.151245,364.885895 
	C290.151245,367.220825 290.151245,369.268738 290.151245,371.977234 
	C287.021240,371.977234 283.926727,371.977112 280.832184,371.977264 
	C266.212219,371.977997 251.592178,371.998199 236.972351,371.954498 
	C235.178894,371.949127 232.641083,372.800507 232.835205,368.937256 
z"/>
<path fill="#EB4B4B" opacity="1.000000" stroke="none" 
	d="
M287.536316,197.058807 
	C288.975311,199.140579 289.950928,201.147659 290.963715,203.495743 
	C271.789093,203.836746 252.577271,203.836746 233.105804,203.836746 
	C233.105804,201.602737 233.105804,199.671143 233.105804,196.984116 
	C251.053772,196.984116 269.063354,196.984116 287.536316,197.058807 
z"/>
<path fill="#ED573E" opacity="1.000000" stroke="none" 
	d="
M329.532349,144.096191 
	C330.932800,146.188232 331.869049,148.213593 332.900818,150.561371 
	C314.973053,150.932129 296.949829,150.980469 278.366638,150.631226 
	C276.871521,148.212051 275.936310,146.190430 275.001129,144.168823 
	C293.023468,144.122391 311.045776,144.075958 329.532349,144.096191 
z"/>
<path fill="#EC5046" opacity="1.000000" stroke="none" 
	d="
M274.536865,144.099899 
	C275.936310,146.190430 276.871521,148.212051 277.903381,150.555252 
	C260.308838,150.927856 242.617599,150.978867 224.463120,150.953629 
	C223.024612,148.868408 222.049347,146.859421 221.036789,144.509491 
	C238.690536,144.122696 256.381561,144.076828 274.536865,144.099899 
z"/>
<path fill="#D43D65" opacity="1.000000" stroke="none" 
	d="
M277.998047,356.023254 
	C263.196228,356.023254 248.394409,356.023254 233.211426,356.023254 
	C233.211426,353.873108 233.211426,351.821808 233.211426,349.160828 
	C246.845779,349.160828 260.454498,349.160828 274.567932,349.573120 
	C276.047760,351.998016 277.022888,354.010651 277.998047,356.023254 
z"/>
<path fill="#ED626F" opacity="1.000000" stroke="none" 
	d="
M313.344604,305.524048 
	C312.269012,303.341827 311.653900,301.290436 310.957703,298.926880 
	C323.112091,298.614685 335.347534,298.614685 348.050415,298.614685 
	C348.050415,300.736176 348.050415,302.914551 348.050415,305.654907 
	C336.551117,305.654907 325.178101,305.654907 313.344604,305.524048 
z"/>
<path fill="#EC5455" opacity="1.000000" stroke="none" 
	d="
M308.435974,254.773438 
	C307.367401,252.680786 306.762695,250.673416 306.075134,248.321899 
	C319.923920,247.977768 333.855621,247.977768 348.061005,247.977768 
	C348.061005,250.301086 348.061005,252.339813 348.061005,254.858719 
	C334.786621,254.858719 321.843231,254.858719 308.435974,254.773438 
z"/>
<path fill="#E8465D" opacity="1.000000" stroke="none" 
	d="
M310.001892,349.311768 
	C322.587860,349.311768 335.173798,349.311768 348.068787,349.311768 
	C348.068787,351.586151 348.068787,353.515289 348.068787,356.213562 
	C336.716980,356.213562 325.319092,356.213562 313.374390,355.793091 
	C311.885712,353.352325 310.943817,351.332031 310.001892,349.311768 
z"/>
<path fill="#DF4362" opacity="1.000000" stroke="none" 
	d="
M309.539062,349.233032 
	C310.943817,351.332031 311.885712,353.352325 312.913452,355.701233 
	C301.639282,356.090790 290.279327,356.151703 278.458679,356.117920 
	C277.022888,354.010651 276.047760,351.998016 275.030029,349.650482 
	C286.350403,349.261780 297.713318,349.208038 309.539062,349.233032 
z"/>
<path fill="#FEF8F9" opacity="1.000000" stroke="none" 
	d="
M188.791199,210.275574 
	C190.148270,209.795731 191.520081,209.327362 192.261368,208.370514 
	C194.985901,204.853760 197.501190,201.174896 200.316574,197.248245 
	C202.441803,198.724716 204.291428,200.009735 206.519348,201.557556 
	C201.595963,208.523300 196.843262,215.247574 191.774475,222.419052 
	C188.471970,219.811295 185.432236,217.411026 181.172974,214.047791 
	C184.154816,212.429718 186.335693,211.246277 188.791199,210.275574 
z"/>
<path fill="#FCF7F9" opacity="1.000000" stroke="none" 
	d="
M191.112579,361.971466 
	C191.112564,361.971466 191.546066,361.724579 191.633270,361.490906 
	C194.575958,357.418793 197.431458,353.580414 200.433151,349.545471 
	C202.477386,350.983826 204.224731,352.213287 206.457077,353.784058 
	C203.255905,358.397400 200.166504,362.849640 196.984741,367.633301 
	C195.163696,370.100372 193.435028,372.236053 191.518753,374.603516 
	C188.443420,372.122101 185.541489,369.780579 182.130890,367.028656 
	C184.797287,365.516815 183.840271,359.275238 189.974854,362.948120 
	C190.757965,362.627991 190.935272,362.299744 191.112579,361.971466 
z"/>
<path fill="#FDF7F9" opacity="1.000000" stroke="none" 
	d="
M197.906342,315.597656 
	C195.767258,318.517609 193.728928,321.104736 191.538895,323.884430 
	C188.444412,321.368866 185.504715,318.979126 182.375381,316.435211 
	C183.615601,314.483093 184.727341,312.733215 185.938477,310.826904 
	C187.489471,311.400177 188.828491,311.895050 190.361954,312.461823 
	C191.302475,311.184784 192.177826,309.996246 193.187714,308.460388 
	C195.606003,305.129578 197.889755,302.146027 200.454391,298.795563 
	C202.383392,300.147369 204.202728,301.422333 206.446396,302.994659 
	C203.523819,307.243896 200.765457,311.254364 197.906342,315.597656 
z"/>
<path fill="#FDF6F7" opacity="1.000000" stroke="none" 
	d="
M202.054688,266.480347 
	C200.871033,267.519257 199.823563,268.265625 198.722198,269.050415 
	C197.130402,267.595459 195.692917,266.281555 194.012085,264.745209 
	C192.330643,266.229614 190.773285,267.604492 188.802261,269.344513 
	C187.150177,267.538422 185.634003,265.880920 183.889984,263.974335 
	C185.330933,262.348999 186.713486,260.789581 187.852402,259.504944 
	C187.885437,256.443359 181.370941,255.531952 186.101471,251.397049 
	C187.166534,250.438004 188.080933,249.781723 189.214417,248.968185 
	C190.703491,250.363907 192.118591,251.690308 193.822876,253.287781 
	C195.464966,251.906998 197.051193,250.573196 199.301834,248.680695 
	C200.597534,250.473969 201.931442,252.320160 203.539719,254.546066 
	C202.682953,255.561691 201.349899,257.141907 200.176956,258.532318 
	C199.570984,261.586731 206.593170,262.260620 202.054688,266.480347 
z"/>
<path fill="#C3376D" opacity="1.000000" stroke="none" 
	d="
M190.914917,362.118713 
	C190.935272,362.299744 190.757965,362.627991 190.293579,362.951660 
	C190.225922,362.701721 190.462830,362.474670 190.914917,362.118713 
z"/>
</svg>